<mxfile host="app.diagrams.net" modified="2024-01-03T12:02:07.688Z" agent="Mozilla/5.0 (Windows NT 10.0; Win64; x64) AppleWebKit/537.36 (KHTML, like Gecko) Chrome/120.0.0.0 Safari/537.36" etag="nnekeWzLOd3ssFQrG4NR" version="22.1.16" type="github">
  <diagram name="Page-1" id="ux_PUUvleqaBWZlEBw-f">
    <mxGraphModel dx="792" dy="1878" grid="1" gridSize="10" guides="1" tooltips="1" connect="1" arrows="1" fold="1" page="1" pageScale="1" pageWidth="850" pageHeight="1100" math="0" shadow="0">
      <root>
        <mxCell id="0" />
        <mxCell id="1" parent="0" />
        <mxCell id="RruQv3TNjF2r6rg1G-1i-2" value="" style="rounded=0;whiteSpace=wrap;html=1;fillColor=#bac8d3;strokeColor=#23445d;" parent="1" vertex="1">
          <mxGeometry x="170" y="-812.99" width="500" height="226" as="geometry" />
        </mxCell>
        <mxCell id="RruQv3TNjF2r6rg1G-1i-3" value="&lt;b&gt;Node&amp;nbsp;&lt;/b&gt;192.168.0.1&lt;b&gt;&amp;nbsp;&lt;/b&gt;" style="text;html=1;strokeColor=none;fillColor=none;align=center;verticalAlign=middle;whiteSpace=wrap;rounded=0;" parent="1" vertex="1">
          <mxGeometry x="345" y="-812.99" width="150" height="30" as="geometry" />
        </mxCell>
        <mxCell id="RruQv3TNjF2r6rg1G-1i-4" value="" style="verticalLabelPosition=bottom;verticalAlign=top;html=1;shape=mxgraph.basic.polygon;polyCoords=[[0,0.25],[0.5,0],[1,0.25],[1,0.75],[0.5,1],[0,0.75],[0,0.25]];polyline=1;fillColor=default;perimeter=rectanglePerimeter;" parent="1" vertex="1">
          <mxGeometry x="479" y="-780" width="160" height="182.86" as="geometry" />
        </mxCell>
        <mxCell id="RruQv3TNjF2r6rg1G-1i-5" value="nginx" style="ellipse;whiteSpace=wrap;html=1;aspect=fixed;fillColor=#D5E8D4;" parent="1" vertex="1">
          <mxGeometry x="509" y="-727" width="40" height="40" as="geometry" />
        </mxCell>
        <mxCell id="RruQv3TNjF2r6rg1G-1i-6" value="nginx" style="ellipse;whiteSpace=wrap;html=1;aspect=fixed;fillColor=#D5E8D4;" parent="1" vertex="1">
          <mxGeometry x="539" y="-677" width="40" height="40" as="geometry" />
        </mxCell>
        <mxCell id="RruQv3TNjF2r6rg1G-1i-7" value="nginx" style="ellipse;whiteSpace=wrap;html=1;aspect=fixed;fillColor=#D5E8D4;" parent="1" vertex="1">
          <mxGeometry x="569" y="-727" width="40" height="40" as="geometry" />
        </mxCell>
        <mxCell id="RruQv3TNjF2r6rg1G-1i-8" value="&lt;b style=&quot;border-color: var(--border-color); text-align: center;&quot;&gt;Pod&amp;nbsp;&lt;/b&gt;&lt;span style=&quot;border-color: var(--border-color); text-align: center;&quot;&gt;10.244.0.1&lt;/span&gt;" style="text;whiteSpace=wrap;html=1;rotation=-30;" parent="1" vertex="1">
          <mxGeometry x="473.51" y="-762.55" width="99" height="27" as="geometry" />
        </mxCell>
        <mxCell id="RruQv3TNjF2r6rg1G-1i-10" value="&lt;b&gt;ClusterIP&amp;nbsp;&lt;/b&gt;10.96.0.0/16&lt;b&gt;&amp;nbsp;&lt;/b&gt;" style="text;html=1;strokeColor=none;fillColor=none;align=center;verticalAlign=middle;whiteSpace=wrap;rounded=0;" parent="1" vertex="1">
          <mxGeometry x="419" y="-865" width="150" height="30" as="geometry" />
        </mxCell>
        <mxCell id="RruQv3TNjF2r6rg1G-1i-13" value="30008" style="rounded=1;whiteSpace=wrap;html=1;fillColor=none;rotation=-90;" parent="1" vertex="1">
          <mxGeometry x="140" y="-709.99" width="80" height="20" as="geometry" />
        </mxCell>
        <mxCell id="RruQv3TNjF2r6rg1G-1i-16" value="&lt;font style=&quot;font-size: 16px;&quot;&gt;Service&lt;/font&gt;" style="rounded=0;whiteSpace=wrap;html=1;" parent="1" vertex="1">
          <mxGeometry x="244" y="-736.68" width="175" height="73.37" as="geometry" />
        </mxCell>
      </root>
    </mxGraphModel>
  </diagram>
</mxfile>
